# 3ds Max Wavefront OBJ Exporter v0.97b - (c)2007 guruware
# File Created: 31.05.2020 19:58:03

mtllib barrier_low.mtl

#
# object Box001
#

v  11.7503 -15.7527 -0.4269
v  11.7503 -28.7890 -0.4269
v  -11.6628 -28.7890 -0.4269
v  -11.6628 -15.7527 -0.4269
v  11.7503 -24.3432 11.7880
v  11.7503 -20.1985 11.7880
v  -11.6628 -20.1985 11.7880
v  -11.6628 -24.3432 11.7880
v  19.8156 -28.7890 -0.4269
v  19.8156 -28.7890 1.7880
v  -19.7281 -28.7890 1.7880
v  -19.7281 -28.7890 -0.4269
v  19.8156 -15.7527 -0.4269
v  19.8156 -15.7527 1.7880
v  -19.7281 -15.7527 -0.4269
v  -19.7281 -15.7527 1.7880
v  19.8156 -15.7527 -1.9269
v  19.8156 -28.7890 -1.9269
v  11.7503 -28.7890 -1.9269
v  11.7503 -15.7527 -1.9269
v  -19.7281 -28.7890 -1.9269
v  -19.7281 -15.7527 -1.9269
v  -11.6628 -15.7527 -1.9269
v  -11.6628 -28.7890 -1.9269
v  19.8156 -25.4502 6.7880
v  -19.7281 -25.4502 6.7880
v  19.8156 -19.0915 6.7880
v  -19.7281 -19.0915 6.7880
v  19.8156 -24.3442 11.7880
v  11.7513 -24.3442 11.7880
v  -11.6638 -24.3442 11.7880
v  -19.7281 -24.3442 11.7880
v  19.8156 -20.1975 11.7880
v  -19.7281 -20.1975 11.7880
v  -11.6638 -20.1975 11.7880
v  11.7513 -20.1975 11.7880
v  19.8156 -20.1975 19.7880
v  14.9277 -20.1975 19.7880
v  14.9277 -24.3442 19.7880
v  19.8156 -24.3442 19.7880
v  -19.7281 -24.3442 19.7880
v  -14.8402 -24.3442 19.7880
v  -14.8402 -20.1975 19.7880
v  -19.7281 -20.1975 19.7880
v  14.9287 -20.1975 19.7880
v  14.9287 -24.3442 19.7880
v  -14.8392 -24.3442 19.7880
v  -14.8392 -20.1975 19.7880
v  -11.6630 -24.3434 11.7880
v  11.7505 -24.3434 11.7880
v  -11.6631 -24.3435 11.7880
v  11.7507 -24.3435 11.7880
v  -11.6633 -24.3437 11.7880
v  11.7508 -24.3437 11.7880
v  11.7505 -20.1983 11.7880
v  -11.6630 -20.1983 11.7880
v  11.7507 -20.1982 11.7880
v  -11.6631 -20.1982 11.7880
v  11.7508 -20.1980 11.7880
v  -11.6633 -20.1980 11.7880
v  11.7512 -24.3440 11.7880
v  -11.6636 -24.3440 11.7880
v  11.7510 -24.3439 11.7880
v  -11.6635 -24.3439 11.7880
v  -11.6636 -20.1977 11.7880
v  11.7512 -20.1977 11.7880
v  -11.6635 -20.1978 11.7880
v  11.7510 -20.1978 11.7880
v  -15.0598 -22.6137 16.8013
v  -15.0598 -22.2589 16.8638
v  -9.0290 -22.2589 16.8638
v  -9.0290 -22.6137 16.8013
v  -15.0598 -21.9470 17.0439
v  -9.0290 -21.9470 17.0439
v  -15.0598 -21.7154 17.3199
v  -9.0290 -21.7154 17.3199
v  -15.0598 -21.5922 17.6584
v  -9.0290 -21.5922 17.6584
v  -15.0598 -21.5922 18.0186
v  -9.0290 -21.5922 18.0186
v  -15.0598 -21.7154 18.3571
v  -9.0290 -21.7154 18.3571
v  -15.0598 -21.9470 18.6330
v  -9.0290 -21.9470 18.6330
v  -15.0598 -22.2589 18.8131
v  -9.0290 -22.2589 18.8131
v  -15.0598 -22.6137 18.8757
v  -9.0290 -22.6137 18.8757
v  -15.0598 -22.9684 18.8131
v  -9.0290 -22.9684 18.8131
v  -15.0598 -23.2804 18.6330
v  -9.0290 -23.2804 18.6330
v  -15.0598 -23.5119 18.3571
v  -9.0290 -23.5119 18.3571
v  -15.0598 -23.6351 18.0186
v  -9.0290 -23.6351 18.0186
v  -15.0598 -23.6351 17.6584
v  -9.0290 -23.6351 17.6584
v  -15.0598 -23.5119 17.3199
v  -9.0290 -23.5119 17.3199
v  -15.0598 -23.2804 17.0439
v  -9.0290 -23.2804 17.0439
v  -15.0598 -22.9684 16.8638
v  -9.0290 -22.9684 16.8638
v  -2.9982 -22.2589 16.8638
v  -2.9982 -22.6137 16.8013
v  -2.9982 -21.9470 17.0439
v  -2.9982 -21.7154 17.3199
v  -2.9982 -21.5922 17.6584
v  -2.9982 -21.5922 18.0186
v  -2.9982 -21.7154 18.3571
v  -2.9982 -21.9470 18.6330
v  -2.9982 -22.2589 18.8131
v  -2.9982 -22.6137 18.8757
v  -2.9982 -22.9684 18.8131
v  -2.9982 -23.2804 18.6330
v  -2.9982 -23.5119 18.3571
v  -2.9982 -23.6351 18.0186
v  -2.9982 -23.6351 17.6584
v  -2.9982 -23.5119 17.3199
v  -2.9982 -23.2804 17.0439
v  -2.9982 -22.9684 16.8638
v  3.0326 -22.2589 16.8638
v  3.0326 -22.6137 16.8013
v  3.0326 -21.9470 17.0439
v  3.0326 -21.7154 17.3199
v  3.0326 -21.5922 17.6584
v  3.0326 -21.5922 18.0186
v  3.0326 -21.7154 18.3571
v  3.0326 -21.9470 18.6330
v  3.0326 -22.2589 18.8131
v  3.0326 -22.6137 18.8757
v  3.0326 -22.9684 18.8131
v  3.0326 -23.2804 18.6330
v  3.0326 -23.5119 18.3571
v  3.0326 -23.6351 18.0186
v  3.0326 -23.6351 17.6584
v  3.0326 -23.5119 17.3199
v  3.0326 -23.2804 17.0439
v  3.0326 -22.9684 16.8638
v  9.0634 -22.2589 16.8638
v  9.0634 -22.6137 16.8013
v  9.0634 -21.9470 17.0439
v  9.0634 -21.7154 17.3199
v  9.0634 -21.5922 17.6584
v  9.0634 -21.5922 18.0186
v  9.0634 -21.7154 18.3571
v  9.0634 -21.9470 18.6330
v  9.0634 -22.2589 18.8131
v  9.0634 -22.6137 18.8757
v  9.0634 -22.9684 18.8131
v  9.0634 -23.2804 18.6330
v  9.0634 -23.5119 18.3571
v  9.0634 -23.6351 18.0186
v  9.0634 -23.6351 17.6584
v  9.0634 -23.5119 17.3199
v  9.0634 -23.2804 17.0439
v  9.0634 -22.9684 16.8638
v  15.0942 -22.2589 16.8638
v  15.0942 -22.6137 16.8013
v  15.0942 -21.9470 17.0439
v  15.0942 -21.7154 17.3199
v  15.0942 -21.5922 17.6584
v  15.0942 -21.5922 18.0186
v  15.0942 -21.7154 18.3571
v  15.0942 -21.9470 18.6330
v  15.0942 -22.2589 18.8131
v  15.0942 -22.6137 18.8757
v  15.0942 -22.9684 18.8131
v  15.0942 -23.2804 18.6330
v  15.0942 -23.5119 18.3571
v  15.0942 -23.6351 18.0186
v  15.0942 -23.6351 17.6584
v  15.0942 -23.5119 17.3199
v  15.0942 -23.2804 17.0439
v  15.0942 -22.9684 16.8638
# 176 vertices

vn 0.0000 0.0000 -1.0000
vn 0.0000 0.0000 1.0000
vn 0.0000 -1.0000 0.0000
vn 1.0000 0.0000 0.0000
vn 0.0000 1.0000 0.0000
vn -1.0000 0.0000 0.0000
vn 1.0000 -0.0000 0.0000
vn 0.0000 -0.8316 0.5553
vn 0.0000 -0.9198 0.3924
vn 0.0000 0.8316 0.5553
vn 0.0000 0.9198 0.3924
vn 0.0000 -0.9941 0.1086
vn 0.0000 -0.9876 0.1573
vn 0.0000 0.9941 0.1086
vn 0.0000 0.9876 0.1573
vn -0.9294 -0.0000 0.3691
vn 0.0000 -1.0000 -0.0001
vn -0.5832 -0.7786 0.2315
vn -0.5832 0.7786 0.2315
vn 0.0000 1.0000 -0.0001
vn -0.9294 0.0001 0.3691
vn 0.5617 -0.0001 0.8273
vn 0.5788 0.6070 0.5446
vn 0.2050 0.8334 0.5133
vn 0.9294 0.0000 0.3690
vn 0.9294 -0.0000 0.3690
vn -0.6803 0.6813 0.2702
vn -0.6821 -0.6792 0.2709
vn -0.6814 0.6801 0.2706
vn -0.6811 0.6804 0.2705
vn -0.6803 -0.6813 0.2702
vn -0.6811 -0.6804 0.2705
vn -0.6814 -0.6801 0.2706
vn 0.6803 -0.6813 0.2700
vn 0.6814 -0.6801 0.2705
vn 0.6811 -0.6805 0.2703
vn 0.6803 0.6813 0.2700
vn 0.6811 0.6805 0.2703
vn 0.6814 0.6801 0.2705
vn 0.0000 -0.0000 -1.0000
vn 0.0000 0.3420 -0.9397
vn -0.0000 0.3420 -0.9397
vn -0.0000 0.0000 -1.0000
vn 0.0000 0.6428 -0.7660
vn -0.0000 0.6428 -0.7660
vn 0.0000 0.8660 -0.5000
vn -0.0000 0.8660 -0.5000
vn 0.0000 0.9848 -0.1736
vn -0.0000 0.9848 -0.1736
vn 0.0000 0.9848 0.1736
vn 0.0000 0.8660 0.5000
vn 0.0000 0.6428 0.7660
vn 0.0000 0.3420 0.9397
vn 0.0000 -0.3420 0.9397
vn 0.0000 -0.6428 0.7660
vn 0.0000 -0.8660 0.5000
vn 0.0000 -0.9848 0.1736
vn 0.0000 -0.9848 -0.1736
vn 0.0000 -0.8660 -0.5000
vn -0.0000 -0.6428 -0.7660
vn 0.0000 -0.6428 -0.7660
vn -0.0000 -0.3420 -0.9397
vn 0.0000 -0.0000 1.0000
vn -0.0000 -0.8660 -0.5000
vn 0.0000 -0.3420 -0.9397
vn -0.0000 -0.9848 -0.1736
# 66 vertex normals

vt 0.2185 0.7632 0.1221
vt 0.2185 0.2368 0.1221
vt 0.7815 0.2368 0.1221
vt 0.7815 0.7632 0.1221
vt 0.7815 0.4163 0.6154
vt 0.7815 0.5837 0.6154
vt 0.2185 0.5837 0.6154
vt 0.2185 0.4163 0.6154
vt 0.7815 0.1221 0.2368
vt 0.9754 0.1221 0.2368
vt 0.9754 0.2116 0.2368
vt 0.0246 0.2116 0.2368
vt 0.0246 0.1221 0.2368
vt 0.2185 0.1221 0.2368
vt 0.2368 0.1221 0.9754
vt 0.7632 0.1221 0.9754
vt 0.7632 0.2116 0.9754
vt 0.2368 0.2116 0.9754
vt 0.7815 0.1221 0.7632
vt 0.9754 0.1221 0.7632
vt 0.9754 0.2116 0.7632
vt 0.0246 0.2116 0.7632
vt 0.0246 0.1221 0.7632
vt 0.2185 0.1221 0.7632
vt 0.2368 0.1221 0.0246
vt 0.7632 0.1221 0.0246
vt 0.7632 0.2116 0.0246
vt 0.2368 0.2116 0.0246
vt 0.0246 0.7632 0.0616
vt 0.0246 0.2368 0.0616
vt 0.2185 0.2368 0.0616
vt 0.2185 0.7632 0.0616
vt 0.9754 0.2368 0.0616
vt 0.9754 0.7632 0.0616
vt 0.7815 0.7632 0.0616
vt 0.7815 0.2368 0.0616
vt 0.2368 0.0616 0.9754
vt 0.7632 0.0616 0.9754
vt 0.7815 0.0616 0.2368
vt 0.9754 0.0616 0.2368
vt 0.7632 0.1221 0.7815
vt 0.2368 0.1221 0.7815
vt 0.2368 0.0616 0.7815
vt 0.7632 0.0616 0.7815
vt 0.0246 0.0616 0.7632
vt 0.2185 0.0616 0.7632
vt 0.2368 0.0616 0.0246
vt 0.7632 0.0616 0.0246
vt 0.7815 0.0616 0.7632
vt 0.9754 0.0616 0.7632
vt 0.7632 0.1221 0.2185
vt 0.2368 0.1221 0.2185
vt 0.2368 0.0616 0.2185
vt 0.7632 0.0616 0.2185
vt 0.0246 0.0616 0.2368
vt 0.2185 0.0616 0.2368
vt 0.9754 0.4135 0.3716
vt 0.0246 0.4135 0.3716
vt 0.6284 0.4135 0.9754
vt 0.3716 0.4135 0.9754
vt 0.9754 0.4135 0.6284
vt 0.0246 0.4135 0.6284
vt 0.6284 0.4135 0.0246
vt 0.3716 0.4135 0.0246
vt 0.9754 0.6154 0.4163
vt 0.7815 0.6154 0.4163
vt 0.2185 0.6154 0.4163
vt 0.0246 0.6154 0.4163
vt 0.5837 0.6154 0.9754
vt 0.4163 0.6154 0.9754
vt 0.9754 0.6154 0.5837
vt 0.7815 0.6154 0.5837
vt 0.2185 0.6154 0.5837
vt 0.0246 0.6154 0.5837
vt 0.5837 0.6154 0.0246
vt 0.4163 0.6154 0.0246
vt 0.9754 0.5837 0.9384
vt 0.8579 0.5837 0.9384
vt 0.8579 0.4163 0.9384
vt 0.9754 0.4163 0.9384
vt 0.0246 0.4163 0.9384
vt 0.1421 0.4163 0.9384
vt 0.1421 0.5837 0.9384
vt 0.0246 0.5837 0.9384
vt 0.5837 0.9384 0.9754
vt 0.4163 0.9384 0.9754
vt 0.1421 0.9384 0.5837
vt 0.0246 0.9384 0.5837
vt 0.5837 0.6154 0.7815
vt 0.5837 0.9384 0.8579
vt 0.4163 0.9384 0.8579
vt 0.4163 0.6154 0.7815
vt 0.9754 0.9384 0.4163
vt 0.8579 0.9384 0.4163
vt 0.1421 0.9384 0.4163
vt 0.0246 0.9384 0.4163
vt 0.5837 0.9384 0.1421
vt 0.4163 0.9384 0.1421
vt 0.4163 0.6154 0.2185
vt 0.5837 0.6154 0.2185
vt 0.9754 0.9384 0.5837
vt 0.8579 0.9384 0.5837
vt 0.5837 0.9384 0.0246
vt 0.4163 0.9384 0.0246
vt 0.8632 0.4862 0.8178
vt 0.8632 0.5005 0.8203
vt 0.7182 0.5005 0.8203
vt 0.7182 0.4862 0.8178
vt 0.8632 0.5131 0.8276
vt 0.7182 0.5131 0.8276
vt 0.8632 0.8276 0.5131
vt 0.8632 0.8388 0.5224
vt 0.7182 0.8388 0.5224
vt 0.7182 0.8276 0.5131
vt 0.8632 0.8524 0.5274
vt 0.7182 0.8524 0.5274
vt 0.8632 0.8670 0.5274
vt 0.7182 0.8670 0.5274
vt 0.8632 0.8806 0.5224
vt 0.7182 0.8806 0.5224
vt 0.8632 0.8918 0.5131
vt 0.7182 0.8918 0.5131
vt 0.1368 0.5131 0.8918
vt 0.1368 0.5005 0.8991
vt 0.2818 0.5005 0.8991
vt 0.2818 0.5131 0.8918
vt 0.1368 0.4862 0.9016
vt 0.2818 0.4862 0.9016
vt 0.1368 0.4718 0.8991
vt 0.2818 0.4718 0.8991
vt 0.1368 0.4592 0.8918
vt 0.2818 0.4592 0.8918
vt 0.1368 0.8918 0.4592
vt 0.1368 0.8806 0.4499
vt 0.2818 0.8806 0.4499
vt 0.2818 0.8918 0.4592
vt 0.1368 0.8670 0.4449
vt 0.2818 0.8670 0.4449
vt 0.1368 0.8524 0.4449
vt 0.2818 0.8524 0.4449
vt 0.1368 0.8388 0.4499
vt 0.2818 0.8388 0.4499
vt 0.1368 0.8276 0.4592
vt 0.2818 0.8276 0.4592
vt 0.8632 0.4592 0.8276
vt 0.8632 0.4718 0.8203
vt 0.7182 0.4718 0.8203
vt 0.7182 0.4592 0.8276
vt 0.5731 0.5005 0.8203
vt 0.5731 0.4862 0.8178
vt 0.5731 0.5131 0.8276
vt 0.5731 0.8388 0.5224
vt 0.5731 0.8276 0.5131
vt 0.5731 0.8524 0.5274
vt 0.5731 0.8670 0.5274
vt 0.5731 0.8806 0.5224
vt 0.5731 0.8918 0.5131
vt 0.4269 0.5005 0.8991
vt 0.4269 0.5131 0.8918
vt 0.4269 0.4862 0.9016
vt 0.4269 0.4718 0.8991
vt 0.4269 0.4592 0.8918
vt 0.4269 0.8806 0.4499
vt 0.4269 0.8918 0.4592
vt 0.4269 0.8670 0.4449
vt 0.4269 0.8524 0.4449
vt 0.4269 0.8388 0.4499
vt 0.4269 0.8276 0.4592
vt 0.5731 0.4718 0.8203
vt 0.5731 0.4592 0.8276
vt 0.4281 0.5005 0.8203
vt 0.4281 0.4862 0.8178
vt 0.4281 0.5131 0.8276
vt 0.4281 0.8388 0.5224
vt 0.4281 0.8276 0.5131
vt 0.4281 0.8524 0.5274
vt 0.4281 0.8670 0.5274
vt 0.4281 0.8806 0.5224
vt 0.4281 0.8918 0.5131
vt 0.5719 0.5005 0.8991
vt 0.5719 0.5131 0.8918
vt 0.5719 0.4862 0.9016
vt 0.5719 0.4718 0.8991
vt 0.5719 0.4592 0.8918
vt 0.5719 0.8806 0.4499
vt 0.5719 0.8918 0.4592
vt 0.5719 0.8670 0.4449
vt 0.5719 0.8524 0.4449
vt 0.5719 0.8388 0.4499
vt 0.5719 0.8276 0.4592
vt 0.4281 0.4718 0.8203
vt 0.4281 0.4592 0.8276
vt 0.2831 0.5005 0.8203
vt 0.2831 0.4862 0.8178
vt 0.2831 0.5131 0.8276
vt 0.2831 0.8388 0.5224
vt 0.2831 0.8276 0.5131
vt 0.2831 0.8524 0.5274
vt 0.2831 0.8670 0.5274
vt 0.2831 0.8806 0.5224
vt 0.2831 0.8918 0.5131
vt 0.7169 0.5005 0.8991
vt 0.7169 0.5131 0.8918
vt 0.7169 0.4862 0.9016
vt 0.7169 0.4718 0.8991
vt 0.7169 0.4592 0.8918
vt 0.7169 0.8806 0.4499
vt 0.7169 0.8918 0.4592
vt 0.7169 0.8670 0.4449
vt 0.7169 0.8524 0.4449
vt 0.7169 0.8388 0.4499
vt 0.7169 0.8276 0.4592
vt 0.2831 0.4718 0.8203
vt 0.2831 0.4592 0.8276
vt 0.1381 0.5005 0.8203
vt 0.1381 0.4862 0.8178
vt 0.1381 0.5131 0.8276
vt 0.1381 0.8388 0.5224
vt 0.1381 0.8276 0.5131
vt 0.1381 0.8524 0.5274
vt 0.1381 0.8670 0.5274
vt 0.1381 0.8806 0.5224
vt 0.1381 0.8918 0.5131
vt 0.8619 0.5005 0.8991
vt 0.8619 0.5131 0.8918
vt 0.8619 0.4862 0.9016
vt 0.8619 0.4718 0.8991
vt 0.8619 0.4592 0.8918
vt 0.8619 0.8806 0.4499
vt 0.8619 0.8918 0.4592
vt 0.8619 0.8670 0.4449
vt 0.8619 0.8524 0.4449
vt 0.8619 0.8388 0.4499
vt 0.8619 0.8276 0.4592
vt 0.1381 0.4718 0.8203
vt 0.1381 0.4592 0.8276
vt 0.4869 0.8276 0.1368
vt 0.4995 0.8203 0.1368
vt 0.5138 0.8178 0.1368
vt 0.5282 0.8203 0.1368
vt 0.5408 0.8276 0.1368
vt 0.5501 0.8388 0.1368
vt 0.5551 0.8524 0.1368
vt 0.5551 0.8670 0.1368
vt 0.5501 0.8806 0.1368
vt 0.5408 0.8918 0.1368
vt 0.5282 0.8991 0.1368
vt 0.5138 0.9016 0.1368
vt 0.4995 0.8991 0.1368
vt 0.4869 0.8918 0.1368
vt 0.4776 0.8806 0.1368
vt 0.4726 0.8670 0.1368
vt 0.4726 0.8524 0.1368
vt 0.4776 0.8388 0.1368
vt 0.4499 0.8388 0.8619
vt 0.4592 0.8276 0.8619
vt 0.4718 0.8203 0.8619
vt 0.4862 0.8178 0.8619
vt 0.5005 0.8203 0.8619
vt 0.5131 0.8276 0.8619
vt 0.5224 0.8388 0.8619
vt 0.5274 0.8524 0.8619
vt 0.5274 0.8670 0.8619
vt 0.5224 0.8806 0.8619
vt 0.5131 0.8918 0.8619
vt 0.5005 0.8991 0.8619
vt 0.4862 0.9016 0.8619
vt 0.4718 0.8991 0.8619
vt 0.4592 0.8918 0.8619
vt 0.4499 0.8806 0.8619
vt 0.4449 0.8670 0.8619
vt 0.4449 0.8524 0.8619
# 272 texture coords

g Box001
usemtl Material__52
s 1
f 1/1/1 2/2/1 3/3/1 4/4/1 
f 5/5/2 6/6/2 7/7/2 8/8/2 
s 2
f 2/9/3 9/10/3 10/11/3 11/12/3 12/13/3 3/14/3 
s 1
f 9/15/4 13/16/4 14/17/4 10/18/4 
s 2
f 4/19/5 15/20/5 16/21/5 14/22/5 13/23/5 1/24/5 
s 1
f 15/25/6 12/26/6 11/27/6 16/28/6 
s 4
f 17/29/1 18/30/1 19/31/1 20/32/1 
f 21/33/1 22/34/1 23/35/1 24/36/1 
s 1
f 13/16/4 9/15/4 18/37/4 17/38/4 
s 2
f 9/10/3 2/9/3 19/39/3 18/40/3 
s 8
f 2/41/6 1/42/6 20/43/6 19/44/6 
s 2
f 1/24/5 13/23/5 17/45/5 20/46/5 
s 1
f 12/26/6 15/25/6 22/47/6 21/48/6 
s 2
f 15/20/5 4/19/5 23/49/5 22/50/5 
s 8
f 4/51/7 3/52/7 24/53/7 23/54/7 
s 2
f 3/14/3 12/13/3 21/55/3 24/56/3 
s 4
f 11/12/8 10/11/8 25/57/9 26/58/9 
s 1
f 10/18/4 14/17/4 27/59/4 25/60/4 
s 4
f 14/22/10 16/21/10 28/61/11 27/62/11 
s 1
f 16/28/6 11/27/6 26/63/6 28/64/6 
s 4
f 26/58/9 25/57/9 29/65/12 30/66/13 31/67/13 32/68/12 
s 1
f 25/60/4 27/59/4 33/69/4 29/70/4 
s 4
f 27/62/11 28/61/11 34/71/14 35/72/15 36/73/15 33/74/14 
s 1
f 28/64/6 26/63/6 32/75/6 34/76/6 
s 2
f 37/77/2 38/78/4 38/78/2 39/79/4 39/79/2 40/80/2 
f 41/81/2 42/82/4 42/82/2 43/83/4 43/83/2 44/84/2 
s 1
f 29/70/4 33/69/4 37/85/4 40/86/4 
s 4
f 45/87/5 38/87/4 37/88/5 33/74/14 36/73/15 
f 5/89/16 46/90/17 39/90/18 38/91/19 45/91/20 6/92/21 
f 40/93/3 39/94/4 46/94/3 30/66/13 29/65/12 
f 32/68/12 31/67/13 47/95/3 42/95/3 41/96/3 
f 48/97/22 43/97/2 42/98/23 47/98/24 8/99/25 7/100/26 
f 35/72/15 34/71/14 44/101/5 43/102/5 48/102/5 
s 1
f 34/76/6 32/75/6 41/103/6 44/104/6 
s 8
f 45/90/27 45/90/4 45/90/4 38/90/4 38/90/4 45/90/4 45/90/4 45/90/4 45/90/27 
f 46/91/4 46/91/4 46/91/4 39/91/4 39/91/4 46/91/4 46/91/28 46/91/4 46/91/4 
f 47/98/4 47/98/4 47/98/4 42/98/4 42/98/4 47/98/4 47/98/4 47/98/4 47/98/4 
f 48/97/4 48/97/4 48/97/4 43/97/4 43/97/4 48/97/4 48/97/4 48/97/4 48/97/4 
s 1
f 5/5/2 8/8/2 49/8/2 50/5/2 
f 50/5/2 49/8/2 51/8/2 52/5/2 
f 52/5/2 51/8/2 53/8/2 54/5/2 
f 7/7/2 6/6/2 55/6/2 56/7/2 
f 56/7/2 55/6/2 57/6/2 58/7/2 
f 58/7/2 57/6/2 59/6/2 60/7/2 
f 31/8/2 30/5/2 61/5/2 62/8/2 
f 62/8/2 61/5/2 63/5/2 64/8/2 
f 64/8/2 63/5/2 54/5/2 53/8/2 
f 36/6/2 35/7/2 65/7/2 66/6/2 
f 66/6/2 65/7/2 67/7/2 68/6/2 
f 68/6/2 67/7/2 60/7/2 59/6/2 
s 8
f 45/87/4 36/73/27 66/73/29 45/87/4 
f 45/87/4 66/73/29 68/73/30 45/87/4 
f 45/87/4 68/73/30 59/73/27 45/87/27 
f 46/94/4 5/66/31 50/66/32 46/94/28 
f 46/94/28 50/66/32 52/66/33 46/94/4 
f 46/94/4 52/66/33 54/66/31 46/94/4 
f 6/73/27 45/87/4 45/87/4 55/73/27 
f 55/73/27 45/87/4 45/87/27 57/73/27 
f 57/73/27 45/87/27 45/87/27 59/73/27 
f 30/66/31 46/94/4 46/94/4 61/66/31 
f 61/66/31 46/94/4 46/94/4 63/66/31 
f 63/66/31 46/94/4 46/94/4 54/66/31 
f 47/95/4 31/67/34 62/67/35 47/95/4 
f 47/95/4 62/67/35 64/67/36 47/95/4 
f 47/95/4 64/67/36 53/67/34 47/95/4 
f 48/102/4 7/72/37 56/72/38 48/102/4 
f 48/102/4 56/72/38 58/72/39 48/102/4 
f 48/102/4 58/72/39 60/72/37 48/102/4 
f 8/67/34 47/95/4 47/95/4 49/67/34 
f 49/67/34 47/95/4 47/95/4 51/67/34 
f 51/67/34 47/95/4 47/95/4 53/67/34 
f 35/72/37 48/102/4 48/102/4 65/72/37 
f 65/72/37 48/102/4 48/102/4 67/72/37 
f 67/72/37 48/102/4 48/102/4 60/72/37 
f 69/105/40 70/106/41 71/107/42 72/108/43 
f 70/106/41 73/109/44 74/110/45 71/107/42 
f 73/111/44 75/112/46 76/113/47 74/114/45 
f 75/112/46 77/115/48 78/116/49 76/113/47 
f 77/115/48 79/117/50 80/118/50 78/116/49 
f 79/117/50 81/119/51 82/120/51 80/118/50 
f 81/119/51 83/121/52 84/122/52 82/120/51 
f 83/123/52 85/124/53 86/125/53 84/126/52 
f 85/124/53 87/127/2 88/128/2 86/125/53 
f 87/127/2 89/129/54 90/130/54 88/128/2 
f 89/129/54 91/131/55 92/132/55 90/130/54 
f 91/133/55 93/134/56 94/135/56 92/136/55 
f 93/134/56 95/137/57 96/138/57 94/135/56 
f 95/137/57 97/139/58 98/140/58 96/138/57 
f 97/139/58 99/141/59 100/142/59 98/140/58 
f 99/141/59 101/143/60 102/144/61 100/142/59 
f 101/145/60 103/146/62 104/147/62 102/148/61 
f 103/146/62 69/105/40 72/108/43 104/147/62 
f 72/108/43 71/107/42 105/149/41 106/150/1 
f 71/107/42 74/110/45 107/151/45 105/149/41 
f 74/114/45 76/113/47 108/152/47 107/153/45 
f 76/113/47 78/116/49 109/154/49 108/152/47 
f 78/116/49 80/118/50 110/155/50 109/154/49 
f 80/118/50 82/120/51 111/156/51 110/155/50 
f 82/120/51 84/122/52 112/157/52 111/156/51 
f 84/126/52 86/125/53 113/158/53 112/159/52 
f 86/125/53 88/128/2 114/160/63 113/158/53 
f 88/128/2 90/130/54 115/161/54 114/160/63 
f 90/130/54 92/132/55 116/162/55 115/161/54 
f 92/136/55 94/135/56 117/163/56 116/164/55 
f 94/135/56 96/138/57 118/165/57 117/163/56 
f 96/138/57 98/140/58 119/166/58 118/165/57 
f 98/140/58 100/142/59 120/167/64 119/166/58 
f 100/142/59 102/144/61 121/168/60 120/167/64 
f 102/148/61 104/147/62 122/169/65 121/170/60 
f 104/147/62 72/108/43 106/150/1 122/169/65 
f 106/150/1 105/149/41 123/171/41 124/172/1 
f 105/149/41 107/151/45 125/173/44 123/171/41 
f 107/153/45 108/152/47 126/174/46 125/175/44 
f 108/152/47 109/154/49 127/176/48 126/174/46 
f 109/154/49 110/155/50 128/177/50 127/176/48 
f 110/155/50 111/156/51 129/178/51 128/177/50 
f 111/156/51 112/157/52 130/179/52 129/178/51 
f 112/159/52 113/158/53 131/180/53 130/181/52 
f 113/158/53 114/160/63 132/182/2 131/180/53 
f 114/160/63 115/161/54 133/183/54 132/182/2 
f 115/161/54 116/162/55 134/184/55 133/183/54 
f 116/164/55 117/163/56 135/185/56 134/186/55 
f 117/163/56 118/165/57 136/187/57 135/185/56 
f 118/165/57 119/166/58 137/188/66 136/187/57 
f 119/166/58 120/167/64 138/189/64 137/188/66 
f 120/167/64 121/168/60 139/190/60 138/189/64 
f 121/170/60 122/169/65 140/191/62 139/192/60 
f 122/169/65 106/150/1 124/172/1 140/191/62 
f 124/172/1 123/171/41 141/193/41 142/194/1 
f 123/171/41 125/173/44 143/195/44 141/193/41 
f 125/175/44 126/174/46 144/196/46 143/197/44 
f 126/174/46 127/176/48 145/198/48 144/196/46 
f 127/176/48 128/177/50 146/199/50 145/198/48 
f 128/177/50 129/178/51 147/200/51 146/199/50 
f 129/178/51 130/179/52 148/201/52 147/200/51 
f 130/181/52 131/180/53 149/202/53 148/203/52 
f 131/180/53 132/182/2 150/204/2 149/202/53 
f 132/182/2 133/183/54 151/205/54 150/204/2 
f 133/183/54 134/184/55 152/206/55 151/205/54 
f 134/186/55 135/185/56 153/207/56 152/208/55 
f 135/185/56 136/187/57 154/209/57 153/207/56 
f 136/187/57 137/188/66 155/210/66 154/209/57 
f 137/188/66 138/189/64 156/211/64 155/210/66 
f 138/189/64 139/190/60 157/212/60 156/211/64 
f 139/192/60 140/191/62 158/213/65 157/214/60 
f 140/191/62 124/172/1 142/194/1 158/213/65 
f 142/194/1 141/193/41 159/215/41 160/216/1 
f 141/193/41 143/195/44 161/217/44 159/215/41 
f 143/197/44 144/196/46 162/218/46 161/219/44 
f 144/196/46 145/198/48 163/220/48 162/218/46 
f 145/198/48 146/199/50 164/221/50 163/220/48 
f 146/199/50 147/200/51 165/222/51 164/221/50 
f 147/200/51 148/201/52 166/223/52 165/222/51 
f 148/203/52 149/202/53 167/224/53 166/225/52 
f 149/202/53 150/204/2 168/226/2 167/224/53 
f 150/204/2 151/205/54 169/227/54 168/226/2 
f 151/205/54 152/206/55 170/228/55 169/227/54 
f 152/208/55 153/207/56 171/229/56 170/230/55 
f 153/207/56 154/209/57 172/231/57 171/229/56 
f 154/209/57 155/210/66 173/232/58 172/231/57 
f 155/210/66 156/211/64 174/233/59 173/232/58 
f 156/211/64 157/212/60 175/234/61 174/233/59 
f 157/214/60 158/213/65 176/235/65 175/236/61 
f 158/213/65 142/194/1 160/216/1 176/235/65 
s 1
f 73/237/6 70/238/6 69/239/6 103/240/6 101/241/6 99/242/6 97/243/6 95/244/6 93/245/6 91/246/6 89/247/6 87/248/6 85/249/6 83/250/6 81/251/6 79/252/6 77/253/6 75/254/6 
f 174/255/4 175/256/4 176/257/4 160/258/4 159/259/4 161/260/4 162/261/4 163/262/4 164/263/4 165/264/4 166/265/4 167/266/4 168/267/4 169/268/4 170/269/4 171/270/4 172/271/4 173/272/4 
# 166 polygons

