# 3ds Max Wavefront OBJ Exporter v0.97b - (c)2007 guruware
# File Created: 31.05.2020 19:55:00

mtllib barrier_jersey.mtl

#
# object Box001
#

v  -8.6128 3.9886 -3.0538
v  3.4594 3.9886 -3.0538
v  3.4594 -4.0441 -3.0538
v  -8.6128 -4.0441 -3.0538
v  -3.7100 -20.1097 20.7508
v  -1.4434 -20.1097 20.7508
v  -1.4434 20.0542 20.7508
v  -3.7100 20.0542 20.7508
v  -8.6128 -20.1097 -0.9186
v  3.4594 -20.1097 -0.9186
v  0.4683 -20.1097 5.8038
v  -5.6217 -20.1097 5.8038
v  3.4594 12.0214 -0.9186
v  3.4594 20.0542 -0.9186
v  0.4683 20.0542 5.8038
v  3.4594 -12.0769 -0.9186
v  3.4594 -4.0441 -0.9186
v  3.4594 3.9886 -0.9186
v  -8.6128 20.0542 -0.9186
v  -5.6217 20.0542 5.8038
v  -8.6128 -12.0769 -0.9186
v  -8.6128 12.0214 -0.9186
v  -8.6128 3.9886 -0.9186
v  -8.6128 -4.0441 -0.9186
v  -8.6128 20.0542 -3.0538
v  3.4594 20.0542 -3.0538
v  3.4594 12.0214 -3.0538
v  -8.6128 12.0214 -3.0538
v  3.4594 -20.1097 -3.0538
v  -8.6128 -20.1097 -3.0538
v  -8.6128 -12.0769 -3.0538
v  3.4594 -12.0769 -3.0538
# 32 vertices

vn 0.0000 0.0000 -1.0000
vn 0.0000 0.0000 1.0000
vn 0.0000 -1.0000 0.0000
vn 0.9877 0.0000 0.1564
vn 0.0000 1.0000 0.0000
vn -0.9877 0.0000 0.1564
vn -1.0000 0.0000 0.0000
vn 1.0000 0.0000 0.0000
vn -0.0000 -1.0000 0.0000
vn 0.9990 0.0000 0.0455
vn -0.9990 0.0000 0.0455
# 11 vertex normals

vt 0.6568 0.6000 0.0000
vt 0.3532 0.6000 0.0000
vt 0.3532 0.4000 0.0000
vt 0.6568 0.4000 0.0000
vt 0.4765 0.0000 1.0000
vt 0.5335 0.0000 1.0000
vt 0.5335 1.0000 1.0000
vt 0.4765 1.0000 1.0000
vt 0.3532 0.0897 0.0000
vt 0.6568 0.0897 -0.0000
vt 0.5816 0.3721 0.0000
vt 0.4284 0.3721 0.0000
vt 0.8080 0.0897 0.6503
vt 1.0100 0.0897 0.6503
vt 1.0100 0.3721 0.5758
vt 0.0000 0.3721 0.5758
vt -0.0000 0.0897 0.6503
vt 0.2020 0.0897 0.6503
vt 0.4040 0.0897 0.6503
vt 0.6060 0.0897 0.6503
vt 0.3532 0.0897 1.0000
vt 0.6568 0.0897 1.0000
vt 0.5816 0.3721 1.0000
vt 0.4284 0.3721 1.0000
vt 0.8080 0.0897 0.3497
vt 1.0100 0.0897 0.3497
vt 1.0100 0.3721 0.4242
vt 0.0000 0.3721 0.4242
vt 0.0000 0.0897 0.3497
vt 0.2020 0.0897 0.3497
vt 0.4040 0.0897 0.3497
vt 0.6060 0.0897 0.3497
vt 0.6568 1.0000 0.0000
vt 0.3532 1.0000 0.0000
vt 0.3532 0.8000 0.0000
vt 0.6568 0.8000 0.0000
vt 0.6568 0.8000 0.0897
vt 0.3532 0.8000 0.0897
vt 0.3532 0.6000 0.0897
vt 0.6568 0.6000 0.0897
vt 0.3532 -0.0000 0.0000
vt 0.6568 0.0000 0.0000
vt 0.6568 0.2000 0.0000
vt 0.3532 0.2000 0.0000
vt 0.3532 0.2000 0.0897
vt 0.6568 0.2000 0.0897
vt 0.6568 0.4000 0.0897
vt 0.3532 0.4000 0.0897
vt 0.4040 0.0000 0.3497
vt 0.6060 0.0000 0.3497
vt 0.6568 0.0897 0.6000
vt 0.3532 0.0897 0.6000
vt 0.3532 0.0000 0.6000
vt 0.6568 0.0000 0.6000
vt 0.4040 0.0000 0.6503
vt 0.6060 0.0000 0.6503
vt 0.6568 0.0897 0.4000
vt 0.3532 0.0897 0.4000
vt 0.3532 0.0000 0.4000
vt 0.6568 0.0000 0.4000
vt 0.3532 0.0000 1.0000
vt 0.6568 0.0000 1.0000
vt 0.8080 0.0000 0.6503
vt 1.0100 0.0000 0.6503
vt 0.6568 0.0897 0.8000
vt 0.3532 0.0897 0.8000
vt 0.3532 0.0000 0.8000
vt 0.6568 0.0000 0.8000
vt 0.0000 0.0000 0.3497
vt 0.2020 0.0000 0.3497
vt 0.8080 0.0000 0.3497
vt 1.0100 0.0000 0.3497
vt 0.6568 0.0897 0.2000
vt 0.3532 0.0897 0.2000
vt 0.3532 0.0000 0.2000
vt 0.6568 0.0000 0.2000
vt -0.0000 0.0000 0.6503
vt 0.2020 0.0000 0.6503
vt 0.3532 0.0000 0.0000
vt 0.6568 0.0000 -0.0000
vt 0.5335 1.0000 0.0000
vt 0.4765 1.0000 0.0000
vt 1.0100 1.0000 0.5282
vt 0.0000 1.0000 0.5282
vt 1.0100 1.0000 0.4718
vt 0.0000 1.0000 0.4718
# 86 texture coords

g Box001
usemtl Material__27
s 2
f 1/1/1 2/2/1 3/3/1 4/4/1 
s 4
f 5/5/2 6/6/2 7/7/2 8/8/2 
s 8
f 9/9/3 10/10/3 11/11/3 12/12/3 
s 16
f 13/13/4 14/14/4 15/15/4 11/16/4 10/17/4 16/18/4 17/19/4 18/20/4 
s 32
f 14/21/5 19/22/5 20/23/5 15/24/5 
s 64
f 21/25/6 9/26/6 12/27/6 20/28/6 19/29/6 22/30/6 23/31/6 24/32/6 
s 2
f 25/33/1 26/34/1 27/35/1 28/36/1 
f 22/37/1 13/38/1 18/39/1 23/40/1 
f 29/41/1 30/42/1 31/43/1 32/44/1 
f 16/45/1 21/46/1 24/47/1 17/48/1 
s off
f 24/32/7 23/31/7 1/49/7 4/50/7 
f 23/51/5 18/52/5 2/53/5 1/54/5 
f 18/20/8 17/19/8 3/55/8 2/56/8 
f 17/57/9 24/58/9 4/59/9 3/60/9 
f 19/22/5 14/21/5 26/61/5 25/62/5 
f 14/14/8 13/13/8 27/63/8 26/64/8 
f 13/65/3 22/66/3 28/67/3 27/68/3 
f 22/30/7 19/29/7 25/69/7 28/70/7 
f 9/26/7 21/25/7 31/71/7 30/72/7 
f 21/73/5 16/74/5 32/75/5 31/76/5 
f 16/18/8 10/17/8 29/77/8 32/78/8 
f 10/10/3 9/9/3 30/79/3 29/80/3 
f 12/12/3 11/11/3 6/81/3 5/82/3 
f 11/16/10 15/15/10 7/83/10 6/84/10 
f 15/24/5 20/23/5 8/7/5 7/8/5 
f 20/28/11 12/27/11 5/85/11 8/86/11 
# 26 polygons

