# 3ds Max Wavefront OBJ Exporter v0.97b - (c)2007 guruware
# File Created: 31.05.2020 19:51:01

mtllib barrier_asia.mtl

#
# object Box001
#

v  -3.0668 -48.4882 -5.0000
v  -3.0668 -61.7170 -5.0000
v  -10.1281 -61.7170 -5.0000
v  -10.1281 -48.4882 -5.0000
v  9.7230 -53.4104 28.7527
v  -22.9179 -53.4104 28.7527
v  -22.9179 -54.5386 28.7527
v  -22.9179 -55.6667 28.7527
v  -22.9179 -56.7948 28.7527
v  9.7230 -56.7948 28.7527
v  9.7230 -55.6667 28.7527
v  9.7230 -54.5386 28.7527
v  -22.9179 -61.7170 0.0000
v  9.7230 -61.7170 0.0000
v  9.7230 -61.7170 4.3339
v  -22.9179 -61.7170 4.3339
v  11.2230 -52.8978 0.0000
v  11.2230 -52.8978 4.3339
v  11.2230 -57.3074 4.3339
v  11.2230 -57.3074 0.0000
v  9.7230 -48.4882 0.0000
v  -22.9179 -48.4882 0.0000
v  -22.9179 -48.4882 4.3339
v  9.7230 -48.4882 4.3339
v  -24.4179 -57.3074 0.0000
v  -24.4179 -57.3074 4.3339
v  -24.4179 -52.8978 4.3339
v  -24.4179 -52.8978 0.0000
v  9.7230 -58.7948 8.7527
v  -22.9179 -58.7948 8.7527
v  11.2230 -53.8719 8.7527
v  11.2230 -56.3333 8.7527
v  -22.9179 -51.4104 8.7527
v  9.7230 -51.4104 8.7527
v  -24.4179 -56.3333 8.7527
v  -24.4179 -53.8719 8.7527
v  -24.4179 -52.8978 -3.0000
v  -24.4179 -57.3074 -3.0000
v  9.7230 -48.4882 -3.0000
v  3.9945 -48.4882 -3.0000
v  -3.0668 -48.4882 -3.0000
v  -10.1281 -48.4882 -3.0000
v  -17.1894 -48.4882 -3.0000
v  -22.9179 -48.4882 -3.0000
v  11.2230 -57.3074 -3.0000
v  11.2230 -52.8978 -3.0000
v  -22.9179 -61.7170 -3.0000
v  -17.1894 -61.7170 -3.0000
v  -10.1281 -61.7170 -3.0000
v  -3.0668 -61.7170 -3.0000
v  3.9945 -61.7170 -3.0000
v  9.7230 -61.7170 -3.0000
v  9.7230 -58.7948 26.7527
v  -22.9179 -58.7948 26.7527
v  11.2230 -54.4886 27.2536
v  11.2230 -55.7166 27.2536
v  -22.9179 -51.4104 26.7527
v  9.7230 -51.4104 26.7527
v  -24.4179 -55.7166 27.2536
v  -24.4179 -54.4886 27.2536
v  9.7230 -52.8978 4.3339
v  9.7230 -52.8978 0.0000
v  9.7230 -57.3074 0.0000
v  9.7230 -57.3074 4.3339
v  9.7230 -53.8719 8.7527
v  9.7230 -56.3333 8.7527
v  9.7230 -57.3074 -3.0000
v  9.7230 -52.8978 -3.0000
v  -22.9179 -57.3074 4.3339
v  -22.9179 -57.3074 0.0000
v  -22.9179 -52.8978 0.0000
v  -22.9179 -52.8978 4.3339
v  -22.9179 -56.3333 8.7527
v  -22.9179 -53.8719 8.7527
v  -22.9179 -52.8978 -3.0000
v  -22.9179 -57.3074 -3.0000
v  3.9945 -48.4882 -5.0000
v  9.7230 -48.4882 -5.0000
v  9.7230 -52.8978 -5.0000
v  9.7230 -57.3074 -5.0000
v  9.7230 -61.7170 -5.0000
v  3.9945 -61.7170 -5.0000
v  -17.1894 -61.7170 -5.0000
v  -22.9179 -61.7170 -5.0000
v  -22.9179 -57.3074 -5.0000
v  -22.9179 -52.8978 -5.0000
v  -22.9179 -48.4882 -5.0000
v  -17.1894 -48.4882 -5.0000
# 88 vertices

vn 0.0000 0.0000 -1.0000
vn 0.0000 0.0000 1.0000
vn 0.0000 -1.0000 0.0000
vn 1.0000 0.0000 0.0000
vn 0.0000 1.0000 0.0000
vn -1.0000 0.0000 0.0000
vn 0.0000 -0.8341 0.5516
vn 0.0000 0.8341 0.5516
vn 0.0000 -0.7071 0.7071
vn 0.0000 0.7071 0.7071
vn 0.0000 1.0000 -0.0000
vn 0.0000 0.9941 0.1083
vn -0.0000 0.9922 0.1248
vn 0.0000 0.9922 0.1248
vn -0.0000 0.9994 0.0333
vn 0.7069 0.0000 0.7073
vn -0.0000 -0.9922 0.1248
vn -0.0000 -0.9994 0.0333
vn 0.0000 -0.9994 0.0333
vn 0.0000 -0.9922 0.1248
vn 0.0000 -0.9941 0.1083
vn 0.0000 -1.0000 -0.0000
vn -0.7069 0.0000 0.7073
vn 0.0000 0.9994 0.0333
vn 1.0000 -0.0000 0.0000
# 25 vertex normals

vt 0.4184 0.7402 0.0224
vt 0.4184 0.2598 0.0224
vt 0.5816 0.2598 0.0224
vt 0.5816 0.7402 0.0224
vt 0.8770 0.5614 0.9776
vt 0.1230 0.5614 0.9776
vt 0.1230 0.5205 0.9776
vt 0.1230 0.4795 0.9776
vt 0.1230 0.4386 0.9776
vt 0.8770 0.4386 0.9776
vt 0.8770 0.4795 0.9776
vt 0.8770 0.5205 0.9776
vt 0.1230 0.1639 0.2598
vt 0.8770 0.1639 0.2598
vt 0.8770 0.2866 0.2598
vt 0.1230 0.2866 0.2598
vt 0.5801 0.1639 0.9117
vt 0.5801 0.2866 0.9117
vt 0.4199 0.2866 0.9117
vt 0.4199 0.1639 0.9117
vt 0.1230 0.1639 0.7402
vt 0.8770 0.1639 0.7402
vt 0.8770 0.2866 0.7402
vt 0.1230 0.2866 0.7402
vt 0.5801 0.1639 0.0883
vt 0.5801 0.2866 0.0883
vt 0.4199 0.2866 0.0883
vt 0.4199 0.1639 0.0883
vt 0.8770 0.4116 0.3659
vt 0.1230 0.4116 0.3659
vt 0.5447 0.4116 0.9117
vt 0.4553 0.4116 0.9117
vt 0.8770 0.4116 0.6341
vt 0.1230 0.4116 0.6341
vt 0.5447 0.4116 0.0883
vt 0.4553 0.4116 0.0883
vt 0.4199 0.0790 0.0883
vt 0.5801 0.0790 0.0883
vt 0.1230 0.0790 0.7402
vt 0.2553 0.0790 0.7402
vt 0.4184 0.0790 0.7402
vt 0.5816 0.0790 0.7402
vt 0.7447 0.0790 0.7402
vt 0.8770 0.0790 0.7402
vt 0.4199 0.0790 0.9117
vt 0.5801 0.0790 0.9117
vt 0.1230 0.0790 0.2598
vt 0.2553 0.0790 0.2598
vt 0.4184 0.0790 0.2598
vt 0.5816 0.0790 0.2598
vt 0.7447 0.0790 0.2598
vt 0.8770 0.0790 0.2598
vt 0.8770 0.9210 0.3659
vt 0.1230 0.9210 0.3659
vt 0.5223 0.9352 0.9117
vt 0.4777 0.9352 0.9117
vt 0.8770 0.9210 0.6341
vt 0.1230 0.9210 0.6341
vt 0.5223 0.9352 0.0883
vt 0.4777 0.9352 0.0883
vt 0.1230 0.9776 0.4386
vt 0.8770 0.9776 0.4386
vt 0.1230 0.9776 0.5614
vt 0.8770 0.9776 0.5614
vt 0.7402 0.1639 0.8770
vt 0.7402 0.2866 0.8770
vt 0.5801 0.2866 0.8770
vt 0.5801 0.1639 0.8770
vt 0.2598 0.2866 0.8770
vt 0.2598 0.1639 0.8770
vt 0.4199 0.1639 0.8770
vt 0.4199 0.2866 0.8770
vt 0.6341 0.4116 0.8770
vt 0.5447 0.4116 0.8770
vt 0.3659 0.4116 0.8770
vt 0.4553 0.4116 0.8770
vt 0.2598 0.0790 0.8770
vt 0.4199 0.0790 0.8770
vt 0.7402 0.0790 0.8770
vt 0.5801 0.0790 0.8770
vt 0.6341 0.9210 0.8770
vt 0.5614 0.9776 0.8770
vt 0.5205 0.9776 0.8770
vt 0.3659 0.9210 0.8770
vt 0.4795 0.9776 0.8770
vt 0.4386 0.9776 0.8770
vt 0.1230 0.4199 0.0790
vt 0.1230 0.5801 0.0790
vt 0.0883 0.5801 0.0790
vt 0.0883 0.4199 0.0790
vt 0.1230 0.0790 0.5801
vt 0.1230 0.1639 0.5801
vt 0.0883 0.1639 0.5801
vt 0.0883 0.0790 0.5801
vt 0.1230 0.2866 0.5801
vt 0.0883 0.2866 0.5801
vt 0.1230 0.4116 0.5447
vt 0.0883 0.4116 0.5447
vt 0.1230 0.9776 0.5205
vt 0.0883 0.9352 0.5223
vt 0.9117 0.4116 0.4553
vt 0.9117 0.9352 0.4777
vt 0.8770 0.9776 0.4795
vt 0.8770 0.4116 0.4553
vt 0.8770 0.2866 0.4199
vt 0.9117 0.2866 0.4199
vt 0.8770 0.1639 0.4199
vt 0.9117 0.1639 0.4199
vt 0.8770 0.0790 0.4199
vt 0.9117 0.0790 0.4199
vt 0.9117 0.5223 0.9352
vt 0.9117 0.4777 0.9352
vt 0.7402 0.1639 0.1230
vt 0.7402 0.2866 0.1230
vt 0.5801 0.2866 0.1230
vt 0.5801 0.1639 0.1230
vt 0.2598 0.2866 0.1230
vt 0.2598 0.1639 0.1230
vt 0.4199 0.1639 0.1230
vt 0.4199 0.2866 0.1230
vt 0.6341 0.4116 0.1230
vt 0.5447 0.4116 0.1230
vt 0.3659 0.4116 0.1230
vt 0.4553 0.4116 0.1230
vt 0.2598 0.0790 0.1230
vt 0.4199 0.0790 0.1230
vt 0.7402 0.0790 0.1230
vt 0.5801 0.0790 0.1230
vt 0.6341 0.9210 0.1230
vt 0.5614 0.9776 0.1230
vt 0.5205 0.9776 0.1230
vt 0.3659 0.9210 0.1230
vt 0.4795 0.9776 0.1230
vt 0.4386 0.9776 0.1230
vt 0.8770 0.5801 0.0790
vt 0.8770 0.4199 0.0790
vt 0.9117 0.4199 0.0790
vt 0.9117 0.5801 0.0790
vt 0.1230 0.0790 0.4199
vt 0.1230 0.1639 0.4199
vt 0.0883 0.1639 0.4199
vt 0.0883 0.0790 0.4199
vt 0.1230 0.2866 0.4199
vt 0.0883 0.2866 0.4199
vt 0.1230 0.4116 0.4553
vt 0.0883 0.4116 0.4553
vt 0.1230 0.9776 0.4795
vt 0.0883 0.9352 0.4777
vt 0.9117 0.4116 0.5447
vt 0.9117 0.9352 0.5223
vt 0.8770 0.9776 0.5205
vt 0.8770 0.4116 0.5447
vt 0.8770 0.2866 0.5801
vt 0.9117 0.2866 0.5801
vt 0.8770 0.1639 0.5801
vt 0.9117 0.1639 0.5801
vt 0.8770 0.0790 0.5801
vt 0.9117 0.0790 0.5801
vt 0.0883 0.4777 0.9352
vt 0.0883 0.5223 0.9352
vt 0.2553 0.7402 0.0224
vt 0.1230 0.7402 0.0224
vt 0.1230 0.5801 0.0224
vt 0.1230 0.4199 0.0224
vt 0.1230 0.2598 0.0224
vt 0.2553 0.2598 0.0224
vt 0.2553 0.7402 0.0790
vt 0.2553 0.2598 0.0790
vt 0.4184 0.2598 0.0790
vt 0.4184 0.7402 0.0790
vt 0.7447 0.2598 0.0224
vt 0.8770 0.2598 0.0224
vt 0.8770 0.4199 0.0224
vt 0.8770 0.5801 0.0224
vt 0.8770 0.7402 0.0224
vt 0.7447 0.7402 0.0224
vt 0.7447 0.2598 0.0790
vt 0.7447 0.7402 0.0790
vt 0.5816 0.7402 0.0790
vt 0.5816 0.2598 0.0790
vt 0.4184 0.0224 0.7402
vt 0.5816 0.0224 0.7402
vt 0.7402 0.0790 0.5816
vt 0.2598 0.0790 0.5816
vt 0.2598 0.0224 0.5816
vt 0.7402 0.0224 0.5816
vt 0.4184 0.0224 0.2598
vt 0.5816 0.0224 0.2598
vt 0.7402 0.0790 0.4184
vt 0.2598 0.0790 0.4184
vt 0.2598 0.0224 0.4184
vt 0.7402 0.0224 0.4184
vt 0.5801 0.0224 0.8770
vt 0.7402 0.0224 0.8770
vt 0.4199 0.0224 0.8770
vt 0.2598 0.0224 0.8770
vt 0.7447 0.0224 0.2598
vt 0.8770 0.0224 0.2598
vt 0.7402 0.0790 0.7447
vt 0.2598 0.0790 0.7447
vt 0.2598 0.0224 0.7447
vt 0.7402 0.0224 0.7447
vt 0.1230 0.0224 0.7402
vt 0.2553 0.0224 0.7402
vt 0.5801 0.0224 0.1230
vt 0.7402 0.0224 0.1230
vt 0.4199 0.0224 0.1230
vt 0.2598 0.0224 0.1230
vt 0.7447 0.0224 0.7402
vt 0.8770 0.0224 0.7402
vt 0.7402 0.0790 0.2553
vt 0.2598 0.0790 0.2553
vt 0.2598 0.0224 0.2553
vt 0.7402 0.0224 0.2553
vt 0.1230 0.0224 0.2598
vt 0.2553 0.0224 0.2598
# 216 texture coords

g Box001
usemtl Material__50
s 1
f 1/1/1 2/2/1 3/3/1 4/4/1 
f 5/5/2 6/6/2 7/7/2 8/8/2 9/9/2 10/10/2 11/11/2 12/12/2 
s 2
f 13/13/3 14/14/3 15/15/3 16/16/3 
f 17/17/4 18/18/4 19/19/4 20/20/4 
f 21/21/5 22/22/5 23/23/5 24/24/5 
f 25/25/6 26/26/6 27/27/6 28/28/6 
s 1
f 16/16/7 15/15/7 29/29/7 30/30/7 
s 2
f 18/18/4 31/31/4 32/32/4 19/19/4 
s 1
f 24/24/8 23/23/8 33/33/8 34/34/8 
s 2
f 26/26/6 35/35/6 36/36/6 27/27/6 
f 28/28/6 37/37/6 38/38/6 25/25/6 
f 22/22/5 21/21/5 39/39/5 40/40/5 41/41/5 42/42/5 43/43/5 44/44/5 
f 20/20/4 45/45/4 46/46/4 17/17/4 
f 14/14/3 13/13/3 47/47/3 48/48/3 49/49/3 50/50/3 51/51/3 52/52/3 
f 30/30/3 29/29/3 53/53/3 54/54/3 
f 31/31/4 55/55/4 56/56/4 32/32/4 
f 34/34/5 33/33/5 57/57/5 58/58/5 
f 35/35/6 59/59/6 60/60/6 36/36/6 
s 4
f 9/61/9 54/54/9 53/53/9 10/62/9 
f 5/63/10 58/58/10 57/57/10 6/64/10 
s 8
f 21/65/4 24/66/4 61/67/4 62/68/4 
f 15/69/4 14/70/4 63/71/4 64/72/4 
f 61/67/4 24/66/4 34/73/4 65/74/4 
f 29/75/4 15/69/4 64/72/4 66/76/4 
f 14/70/4 52/77/4 67/78/4 63/71/4 
f 39/79/4 21/65/4 62/68/4 68/80/4 
f 58/81/4 5/82/4 12/83/4 65/74/4 34/73/4 
f 53/84/4 29/75/4 66/76/4 11/85/4 10/86/4 
s 1
f 67/87/1 68/88/1 46/89/1 45/90/1 
s 4
f 68/91/5 62/92/11 17/93/11 46/94/5 
f 62/92/11 61/95/12 18/96/12 17/93/11 
f 61/95/12 65/97/13 31/98/14 18/96/12 
f 12/99/15 12/99/4 55/100/15 31/98/14 65/97/13 
s 1
f 12/83/2 11/85/2 11/85/16 12/83/16 
s 4
f 32/101/17 56/102/18 11/103/18 11/103/19 66/104/20 
f 66/104/20 64/105/21 19/106/21 32/101/17 
f 64/105/21 63/107/3 20/108/3 19/106/21 
f 63/107/3 67/109/3 45/110/3 20/108/3 
s 1
f 55/111/16 12/12/16 11/11/16 56/112/16 
s 8
f 13/113/6 16/114/6 69/115/6 70/116/6 
f 23/117/6 22/118/6 71/119/6 72/120/6 
f 69/115/6 16/114/6 30/121/6 73/122/6 
f 33/123/6 23/117/6 72/120/6 74/124/6 
f 22/118/6 44/125/6 75/126/6 71/119/6 
f 47/127/6 13/113/6 70/116/6 76/128/6 
f 54/129/6 9/130/6 8/131/6 73/122/6 30/121/6 
f 57/132/6 33/123/6 74/124/6 7/133/6 6/134/6 
s 1
f 75/135/1 76/136/1 38/137/1 37/138/1 
s 4
f 76/139/3 70/140/22 25/141/22 38/142/3 
f 70/140/22 69/143/21 26/144/21 25/141/22 
f 69/143/21 73/145/20 35/146/20 26/144/21 
f 8/147/19 8/147/4 59/148/19 35/146/20 73/145/20 
s 1
f 8/133/2 7/131/2 7/131/23 8/133/23 
s 4
f 36/149/14 60/150/24 7/151/24 7/151/24 74/152/14 
f 74/152/14 72/153/12 27/154/12 36/149/14 
f 72/153/12 71/155/5 28/156/5 27/154/12 
f 71/155/5 75/157/5 37/158/5 28/156/5 
s 1
f 59/159/23 8/8/23 7/7/23 60/160/23 
f 77/161/1 78/162/1 79/163/1 80/164/1 81/165/1 82/166/1 
f 40/167/1 51/168/1 50/169/1 41/170/1 
f 83/171/1 84/172/1 85/173/1 86/174/1 87/175/1 88/176/1 
f 48/177/1 43/178/1 42/179/1 49/180/1 
s off
f 42/42/5 41/41/5 1/181/5 4/182/5 
f 41/183/25 50/184/25 2/185/25 1/186/25 
f 50/50/3 49/49/3 3/187/3 2/188/3 
f 49/189/6 42/190/6 4/191/6 3/192/6 
f 39/79/4 68/80/4 79/193/4 78/194/4 
f 68/80/4 67/78/4 80/195/4 79/193/4 
f 67/78/4 52/77/4 81/196/4 80/195/4 
f 52/52/3 51/51/3 82/197/3 81/198/3 
f 51/199/6 40/200/6 77/201/6 82/202/6 
f 40/40/5 39/39/5 78/203/5 77/204/5 
f 47/127/6 76/128/6 85/205/6 84/206/6 
f 76/128/6 75/126/6 86/207/6 85/205/6 
f 75/126/6 44/125/6 87/208/6 86/207/6 
f 44/44/5 43/43/5 88/209/5 87/210/5 
f 43/211/4 48/212/4 83/213/4 88/214/4 
f 48/48/3 47/47/3 84/215/3 83/216/3 
# 78 polygons

